<?xml version="1.0" encoding="UTF-8" standalone="no"?>
<svg width="77px" height="77px" viewBox="0 0 77 77" version="1.1" xmlns="http://www.w3.org/2000/svg" xmlns:xlink="http://www.w3.org/1999/xlink" xmlns:sketch="http://www.bohemiancoding.com/sketch/ns">
    <!-- Generator: Sketch 3.3.2 (12043) - http://www.bohemiancoding.com/sketch -->
    <title>Group</title>
    <desc>Created with Sketch.</desc>
    <defs>
        <circle id="path-1" cx="37.5" cy="37.5" r="37.5"></circle>
    </defs>
    <g id="Page-1" stroke="none" stroke-width="1" fill="none" fill-rule="evenodd" sketch:type="MSPage">
        <g id="Group" sketch:type="MSLayerGroup" transform="translate(1.000000, 1.000000)">
            <mask id="mask-2" sketch:name="Mask" fill="white">
                <use xlink:href="#path-1"></use>
            </mask>
            <use id="Mask" stroke="#4A4A4A" stroke-width="2" sketch:type="MSShapeGroup" xlink:href="#path-1"></use>
            <g mask="url(#mask-2)" stroke="#4A4A4A" sketch:type="MSShapeGroup">
                <g transform="translate(11.961207, 2.586207)">
                    <path d="M0.0647183122,7.47449151 C3.59535692,7.47449151 3.95421667,4.89235604 6.21295797,5.7896055 C6.57834085,5.9347481 6.97760946,6.32282432 6.94474845,6.71460382 C6.82702199,8.11817668 5.97142455,9.38316713 5.79434099,10.7804923 C5.34665928,14.3130445 7.68353342,10.4259325 5.88242103,14.7093674 C3.92052447,19.375182 2.66841672,16.1977891 3.52225468,23.3232169 C3.59792512,23.9547 4.75168057,24.0237234 4.90122828,24.641892 L5.07012729,28.0716469 C5.09730904,28.184005 6.129068,33.6861129 8.23185362,34.1633764 C9.19765072,34.3825807 5.38781914,28.5319917 6.31177179,27.1232868 C6.49550003,26.8431655 7.14390947,26.689786 7.3068553,26.982485 C7.76311594,27.8020643 7.39979045,28.8984002 7.77787833,29.7568486 C8.32513826,30.9994019 9.49701276,31.9032323 10.0250244,33.1540864 C12.3571251,38.6788087 17.1134159,41.3982523 17.1134159,41.3982523" id="Path-1"></path>
                    <path d="M16.97072,41.4367676 C18.7247254,41.6838473 23.1853206,43.4406342 24.7230267,44.3209944 C26.2126854,45.1738468 27.0698951,46.9532672 28.6234889,47.6831897 C29.9020491,48.2838936 31.7729175,47.2047469 32.8374402,48.1333765 C34.8893547,49.9233511 31.2090481,53.1827 30.8428534,54.1237667 C29.3179643,58.0425084 32.8239983,62.1472337 36.7871515,63.3213438" id="Path-2"></path>
                    <path d="M36.0392603,63.0814125 C42.0750379,68.0047134 27.7817742,69.47657 26.2538515,70.2080036" id="Path-3"></path>
                    <path d="M10.8303728,0.861858499 C14.0641677,4.15586732 9.45686342,0.0327861254 16.1132812,2.63482456 C16.6421523,2.84156381 16.5537964,3.72927036 16.9855578,4.09808981 C17.1986359,4.28010546 17.8262645,4.37832536 17.8262645,4.09808981 C17.8262645,3.42178955 16.3097594,2.2776144 16.9855578,2.25156587 L17.3760776,0.735578866 C22.6920324,0.53067632 18.3077227,2.45527297 20.126448,4.04189537 C22.7899165,6.36545617 20.9281427,0.758620038 23.1656831,1.86862288 C23.8375804,2.20193884 23.7131312,3.39731376 24.3612355,3.77481395 C24.6635124,3.95088064 24.4581531,2.82880844 24.8079497,2.8251911 L24.336611,1.36571424 C25.6040229,1.3526076 26.6482615,2.42436182 27.8607599,2.79362119 C29.3594962,3.25005267 31.0909053,3.04520154 32.4440792,3.83479677 C33.4869065,4.44330058 31.7697792,6.76767119 30.6610107,6.21927196 C29.1387695,5.46636821 27.8561458,4.23721335 26.2645853,3.64474593 C25.9840966,3.5403324 25.7892791,4.10535575 25.7863012,4.40463362 C25.7781626,5.2225569 26.9268422,7.25072969 26.2330154,6.81752172 L25.4204059,6.98642073 C25.1388217,6.8106066 25.2883665,6.28159738 25.0336746,6.06868349 C24.8248129,5.89408215 24.4159453,5.79367258 24.2213808,5.98407614 C23.5079322,6.68226722 22.7330419,7.49669189 22.5683804,8.48125589 C22.2633118,10.3053598 26.3334015,10.882978 26.6096444,11.0665157 C27.0293149,11.3453477 26.8571998,12.1051429 27.2287303,12.4454893 C29.0201979,14.0865916 29.2853049,10.5576828 29.2084793,9.8567568 C29.2082291,9.85447478 26.1794572,5.42617033 29.2365765,6.35344407 C30.3652801,6.69579815 31.7804567,8.73070875 32.4756491,7.77787833 L33.1228322,7.77787833 C33.3450775,7.47326905 33.1245955,6.9973586 33.2917312,6.65935648 C33.3651654,6.51084893 33.6376962,6.37823839 33.7592816,6.49077317 C39.5244845,11.826826 41.6479457,13.2317862 42.2272781,13.8942319 C42.9054942,14.6697474 41.4622136,14.211151 41.1889438,14.5906641 C40.6822468,15.2943573 39.290176,14.9770986 38.7719516,13.5428593 C38.6170983,13.1142867 39.0929554,11.9707215 38.6873443,12.1784079 C37.7648267,12.6507676 37.1804672,13.6594024 36.7255901,14.5906646 C35.7140985,16.6614744 40.221144,14.1902704 39.2192972,17.0490133 C39.0576664,17.5102226 38.8320358,18.1698221 38.3467049,18.2272023 C37.5634887,18.3198013 36.7171599,16.8945669 36.1244991,17.4149086 C34.4344258,18.8987515 33.5070075,21.1231775 32.6704354,23.2108281 C32.4132758,23.8525652 33.3597605,24.6838178 32.9801362,25.2616093 C32.0719076,26.643941 30.2591371,27.207705 29.2062694,28.4833185 C28.9196993,28.8305156 29.007965,29.4297212 29.2062694,29.8338791 C29.4175624,30.2645088 30.0438258,30.3542241 30.3175301,30.7481437 C30.5493829,31.0818298 30.6093872,31.5156652 30.6553282,31.9193873 C30.7230637,32.5146374 30.9621799,33.2021208 30.6553282,33.7166622 C30.1587634,34.549322 29.1649298,33.6485795 28.0107169,31.9263327 C27.5652128,31.2615782 27.6890853,30.1133466 26.9695414,29.7631625 C26.5711229,29.5692622 17.8681395,30.5792247 17.5541319,31.5143454 C16.9814519,33.219797 17.2804346,35.1184569 17.4414273,36.9102741 C17.5852399,38.5108803 21.0167466,40.6442478 22.1264017,38.8237263 C22.5983295,38.0494724 22.7142583,37.077328 23.2521846,36.3473826 C23.4289382,36.1075349 23.8714822,35.9537916 24.1172001,36.1222892 C25.9328865,37.3673706 24.0940464,39.3038797 24.1310909,40.7719053 C24.1417341,41.1936823 24.616594,41.5598866 25.0242036,41.6688064 C26.1213849,41.9619908 27.6406881,41.0943874 28.4220728,41.9185244 C29.1278694,42.6629375 27.8492243,44.0108008 28.1688822,44.985541 C28.4476474,45.8355863 29.2025681,46.6217557 30.0542371,46.8955204 C30.6063292,47.0729877 31.017944,46.148712 31.5945329,46.0866994 C32.4575012,45.9938865 33.3668303,46.7753544 34.1725317,46.4525946 C38.0698912,44.8913326 31.2570936,43.7866308 37.3487801,43.5895196 C38.9810164,43.5367047 40.5390115,44.512201 42.1710836,44.4545351 C42.5171704,44.4423069 41.9400145,43.6105521 42.2272781,43.4171479 C42.7079097,43.0935561 43.428329,43.0160006 43.9576248,43.2517216 C45.7665688,44.0573318 47.1824992,45.5938445 48.9800815,46.4244974 C52.0243562,47.8312401 49.8603325,44.5019448 51.5018858,47.9253309" id="Path-4"></path>
                    <path d="M51.4188569,47.4839835 C50.6728374,49.8111545 57.7231917,48.1902774 59.804456,48.7811911" id="Path-5"></path>
                    <path d="M34.7916176,37.0469718 C31.9098911,36.2497637 31.4198024,34.2630881 28.1016383,35.0242878 C27.7585617,35.1029909 27.2095968,35.7929927 27.5387468,35.9177162 C35.1335854,38.7955969 28.8355808,34.0837597 33.2440606,37.7711855 L34.7916176,37.0469718 Z" id="Path-6"></path>
                    <path d="M36.3783212,37.3320481 C36.6948621,37.8267486 36.759265,38.6694154 37.327944,38.8161495 L35.811957,38.8688712 C37.4867563,39.3010133 40.3426821,38.6931581 37.9716544,36.9633116 L36.3783212,37.3320481 Z" id="Path-7"></path>
                    <path d="M0.1723717,7.19225653 C0.878106028,5.41409153 5.73805169,2.06143766 6.4099542,1.57975822 C6.52282255,1.49884415 11.3045528,-0.984666268 11.3045528,0.84102236" id="Path-8"></path>
                    <path id="Path-9" d="M26.7599172,70.0624663 L26.3735015,70.3857422 L26.7599172,70.0624663 Z"></path>
                    <path d="M26.2118636,70.709018 C25.951517,70.8965433 25.1100508,71.2644838 25.430824,71.2715938 L25.93026,72.1650222 C29.0470642,72.2341065 32.2000297,72.0933942 35.2585365,71.4894262 C36.7628754,71.1923621 46.68214,66.1305034 47.9414315,65.2152226 C48.6481794,64.7015426 49.0071987,63.8113977 49.6790393,63.2528371 C50.6617321,62.4358374 51.9278608,61.98935 52.8657058,61.1212369 C53.2017198,60.8102066 53.0983147,60.2139315 53.3645104,59.8413928 C53.8563685,59.1530414 54.6147039,58.6829013 55.1021181,57.9913961 C55.8770627,56.8919655 56.6202884,55.7471449 57.1282749,54.5016585 C57.4581895,53.6927704 57.2209881,52.7169637 57.5784617,51.9198714 C58.1347682,50.6794229 59.0698242,49.646417 59.8155055,48.5096899" id="Path-10"></path>
                </g>
            </g>
        </g>
    </g>
</svg>