<?xml version="1.0" encoding="UTF-8" standalone="no"?>
<svg width="90px" height="90px" viewBox="0 0 90 90" version="1.1" xmlns="http://www.w3.org/2000/svg" xmlns:xlink="http://www.w3.org/1999/xlink" xmlns:sketch="http://www.bohemiancoding.com/sketch/ns">
    <title>vulcan</title>
    <defs></defs>
    <g id="Page-1" stroke="none" stroke-width="1" fill="none" fill-rule="evenodd" sketch:type="MSPage">
        <g id="vulcan" sketch:type="MSLayerGroup">
            <g id="Page-1" sketch:type="MSShapeGroup">
                <g id="Vulcan">
                    <!-- <circle id="Oval-1" fill="#3D94E1" cx="45" cy="45" r="45"></circle> -->
                    <path d="M50.5737067,22.6859504 L49.8347107,25.3304113 L51.0071095,26.5822685 L51.3622343,30.5362838 L53.1701427,35.3623156 L54.1851014,37.5294622 L55.1655643,41.5022731 L53.7516986,43.6794728 L54.3031814,44.9112236 L53.0025311,49.7713493 L54.1214178,49.6594514 L54.3973801,51.441512 L53.7322396,53.6523687 L53.6928795,55.9021273 L53.545169,58.5024412 L55.1615843,58.7262366 L56.6099453,54.4605683 L56.2994874,53.1846707 L56.9544564,50.4095166 L57.5457415,50.9502105 L58.3585929,50.5603164 L58.7084106,52.2798717 L59.3735512,56.6132906 L59.1024533,57.6133776 L59.397875,58.4534856 L61.9500864,58.7603306 L60.8511009,57.6133776 L61.5215484,53.8320172 L60.5804452,51.3925564 L61.013848,48.4705365 L61.756824,46.5162583 L61.756824,45.0720766 L60.4672297,42.2427221 L61.1615585,41.4393304 L62.9889263,43.8398888 L64.1462883,45.0720766 L64.8901491,45.0720766 L65.7476673,44.4535788 L66.5702479,43.4792808 L66.14171,42.9342159 L65.8706121,42.281624 L64.4669178,42.0866769 L63.4811478,40.836131 L63.2449874,39.6721313 L62.4613247,37.9289726 L61.0969905,37.4713278 L60.5154347,35.9716344 L61.412313,34.6179327 L62.4219646,32.1496235 L61.756824,30.7517746 L60.3924899,30.0943748 L58.9985252,30.4353135 L58.230341,31.6229168 L57.8066675,32.7668101 L57.3883014,33.8241573 L57.7084887,34.7049158 L56.9111162,35.0747032 L56.261012,34.6612057 L55.4384313,33.7699568 L54.5862198,32.3192187 L53.9210793,31.08266 L53.1922552,30.3234157 L52.1772969,26.9096571 L52.0640814,25.7067552 L50.5737067,22.6859504 L50.5737067,22.6859504 Z" id="Path-3" fill="#4A4A4A"></path>
                    <path d="M50.3435782,22.8719008 C50.2237246,22.6447447 49.7648332,22.3397412 49.7648332,22.3397412 L49.0909091,18.5950413 L50.9002196,21.648988 L50.8650348,22.3397412 L53.1818182,27.1487603 L52.3021983,27.1487603 C52.3021983,27.1487603 51.069513,24.2477511 50.3435782,22.8719008 L50.3435782,22.8719008 Z" id="Path-4" fill="#4A4A4A"></path>
                    <path d="M60.0178641,52.4446974 L61.1342498,51.7452445 L60.7078079,50.7550046 L62.1758722,49.5052174 L61.6011992,48.6869828 L61.6114376,47.9026212 L63.0639219,48.0205175 L64.6512828,45.2855905 L65.8264463,44.2561983 L63.8228815,48.4951816 L65.0082831,48.5682066 L65.1667522,49.4603464 L64.2746964,50.5429676 L64.6664173,51.6361467 L65.6532878,51.9106511 L65.5344361,60.9917355 L64.5075033,59.580061 L59.1970106,58.6338121 L58.7603306,53.2325838 L60.0178641,52.4446974 L60.0178641,52.4446974 Z" id="Path-5" fill="#4A4A4A"></path>
                    <path d="M51.1536421,60.3978687 L53.8615919,58.5393311 L59.3616161,57.6446281 L64.7536057,59.0910493 L66.1983471,60.7903605 L66.1983471,64.3236783 L50.9504132,64.338843 L51.1536421,60.3978687 L51.1536421,60.3978687 Z" id="Path-6" fill="#4A4A4A"></path>
                    <rect id="Rectangle-6" fill="#4A4A4A" x="50.9504132" y="63.9669421" width="15.2479339" height="18.5950413"></rect>
                </g>
            </g>
        </g>
    </g>
</svg>
